<?xml version="1.0" encoding="iso-8859-1"?>
<!-- Generator: Adobe Illustrator 19.0.0, SVG Export Plug-In . SVG Version: 6.00 Build 0)  -->
<svg version="1.1" id="Capa_1" xmlns="http://www.w3.org/2000/svg" xmlns:xlink="http://www.w3.org/1999/xlink" x="0px" y="0px"
	 viewBox="0 0 354 354" style="enable-background:new 0 0 354 354;" xml:space="preserve">
<g>
	<g>
		<path style="fill:#00ACEA;" d="M347.62,160.84v38.13l-27.92,2.73c-2.74,12.367-7.7,24.134-14.64,34.73l18.05,21.79l-26.9,26.89
			l-21.79-18.04c-10.565,6.998-22.343,11.963-34.73,14.64l-2.72,28.26H195v-80.33h0.04c27.467,12.612,59.958,0.568,72.569-26.899
			s0.568-59.958-26.899-72.569c-14.51-6.662-31.206-6.655-45.71,0.018V49.84h41.97l2.72,28.26
			c12.365,2.745,24.131,7.705,34.73,14.64l21.79-18.04l26.56,26.9l-18.05,21.79c7.002,10.563,11.967,22.342,14.64,34.73
			L347.62,160.84z"/>
		<g>
			<path style="fill:#D4E1F4;" d="M195,130.19v6.02h-30.46c-0.385-26.783-22.408-48.183-49.191-47.799
				c-26.241,0.377-47.422,21.558-47.799,47.799H28.66l29.93-80.76c3.808-10.283,13.614-17.109,24.58-17.11H195V130.19z"/>
			<path style="fill:#D4E1F4;" d="M164.54,136.21H67.55c0.385-26.783,22.408-48.183,49.191-47.799
				C142.982,88.788,164.163,109.969,164.54,136.21L164.54,136.21z"/>
		</g>
	</g>
	<path style="fill:#00ACEA;" d="M164.54,146.21c-5.523,0-10-4.477-10-10c-0.343-21.26-17.855-38.217-39.115-37.875
		c-20.777,0.335-37.54,17.097-37.875,37.875c0,5.523-4.477,10-10,10s-10-4.477-10-10c0.423-32.306,26.954-58.152,59.26-57.73
		c31.71,0.415,57.315,26.02,57.73,57.73C174.54,141.733,170.063,146.21,164.54,146.21z"/>
</g>
<g>
	<path style="fill:#00EFD1;" d="M195,229.64v40.71H32.59c-14.477-0.002-26.212-11.739-26.21-26.216c0-0.001,0-0.003,0-0.004v-68.25
		c-0.003-10.816,4.454-21.156,12.32-28.58l11.27-10.65v-0.44H195V229.64z"/>
</g>
<g>
	<path style="fill:#D4E1F4;" d="M80.65,270.79v24.46c0.004,14.477-11.729,26.216-26.206,26.22c-0.001,0-0.003,0-0.004,0H32.59
		c-14.477-0.002-26.212-11.739-26.21-26.216c0-0.001,0-0.003,0-0.004v-51.12c-0.004,14.477,11.729,26.216,26.206,26.22
		c0.001,0,0.003,0,0.004,0h48.06V270.79z"/>
</g>
<g>
	<path style="fill:#00ACEA;" d="M189.85,230.1h-38.2c-5.523,0-10-4.477-10-10s4.477-10,10-10h38.2c5.523,0,10,4.477,10,10
		S195.373,230.1,189.85,230.1z"/>
</g>
<g>
	<path style="fill:#00ACEA;" d="M189.85,204.76h-38.2c-5.523,0-10-4.477-10-10s4.477-10,10-10h38.2c5.523,0,10,4.477,10,10
		S195.373,204.76,189.85,204.76z"/>
</g>
<g>
	<path style="fill:#00CEB4;" d="M195,354c-5.523,0-10-4.477-10-10V10c0-5.523,4.477-10,10-10s10,4.477,10,10v334
		C205,349.523,200.523,354,195,354z"/>
</g>
<g>
	<rect x="44.83" y="186.02" style="fill:#D4E1F4;" width="62.48" height="42.82"/>
</g>
<g>
</g>
<g>
</g>
<g>
</g>
<g>
</g>
<g>
</g>
<g>
</g>
<g>
</g>
<g>
</g>
<g>
</g>
<g>
</g>
<g>
</g>
<g>
</g>
<g>
</g>
<g>
</g>
<g>
</g>
</svg>
