<svg fill='current' enable-background="new 0 0 24 24" height="512" viewBox="0 0 24 24" width="512" xmlns="http://www.w3.org/2000/svg"><path d="m21.5 24h-19c-.827 0-1.5-.673-1.5-1.5v-15c0-.276.224-.5.5-.5h21c.276 0 .5.224.5.5v15c0 .827-.673 1.5-1.5 1.5zm-19.5-16v14.5c0 .276.225.5.5.5h19c.275 0 .5-.224.5-.5v-14.5z"/><path d="m15.5 5h-7c-.276 0-.5-.224-.5-.5s.224-.5.5-.5h7c.276 0 .5.224.5.5s-.224.5-.5.5z"/><path d="m23.5 8h-23c-.276 0-.5-.224-.5-.5 0-4.136 3.364-7.5 7.5-7.5h9c4.136 0 7.5 3.364 7.5 7.5 0 .276-.224.5-.5.5zm-22.481-1h21.963c-.257-3.352-3.065-6-6.481-6h-9c-3.417 0-6.226 2.648-6.482 6z"/><path d="m19 24h-7c-.276 0-.5-.224-.5-.5v-6c0-.276.224-.5.5-.5h7c.276 0 .5.224.5.5v6c0 .276-.224.5-.5.5zm-6.5-1h6v-5h-6z"/><path d="m15.5 18h-7c-.276 0-.5-.224-.5-.5v-6c0-.276.224-.5.5-.5h7c.276 0 .5.224.5.5v6c0 .276-.224.5-.5.5zm-6.5-1h6v-5h-6z"/><path d="m12 24h-7c-.276 0-.5-.224-.5-.5v-6c0-.276.224-.5.5-.5h7c.276 0 .5.224.5.5v6c0 .276-.224.5-.5.5zm-6.5-1h6v-5h-6z"/><path d="m12 13.5c-.276 0-.5-.224-.5-.5v-1.5c0-.276.224-.5.5-.5s.5.224.5.5v1.5c0 .276-.224.5-.5.5z"/><path d="m8.5 19.5c-.276 0-.5-.224-.5-.5v-1.5c0-.276.224-.5.5-.5s.5.224.5.5v1.5c0 .276-.224.5-.5.5z"/><path d="m15.5 19.5c-.276 0-.5-.224-.5-.5v-1.5c0-.276.224-.5.5-.5s.5.224.5.5v1.5c0 .276-.224.5-.5.5z"/></svg>