<svg id="color" height="512" viewBox="0 0 24 24" width="512" xmlns="http://www.w3.org/2000/svg"><g fill="#eceff1"><path d="m3.693 17.445c-.626-.558-.849-1.383-.579-2.153l1.359-3.894c.912-2.612 3.533-4.367 6.522-4.367 3.091 0 5.652 1.853 6.693 4.835l1.196 3.426c.269.771.047 1.596-.579 2.153-.708.629-1.727.764-2.592.343-2.951-1.434-6.477-1.435-9.43.001-.868.421-1.882.285-2.59-.344"/><path d="m5.966 3.792c-1.001-1.733-.55-3.147.232-3.598.969-.562 2.391.14 3.231 1.598 1.002 1.732.549 3.147-.232 3.598-1 .577-2.417-.186-3.231-1.598"/><path d="m12.803 5.39c-.78-.45-1.233-1.866-.231-3.598.841-1.457 2.263-2.158 3.231-1.598.781.45 1.232 1.864.231 3.598-.813 1.411-2.231 2.175-3.231 1.598z"/><path d="m.998 7.826c-.935-.933-1.417-2.471-.53-3.358.889-.889 2.428-.402 3.358.53.94.94 1.413 2.477.53 3.358-.894.897-2.435.393-3.358-.53"/><path d="m17.644 8.356c-.883-.881-.41-2.418.53-3.358.931-.932 2.47-1.419 3.358-.53.887.887.404 2.426-.53 3.358-.924.924-2.47 1.422-3.358.53z"/></g><path d="m10.996 7.031c-2.989 0-5.61 1.755-6.522 4.367l-1.359 3.894c-.27.771-.047 1.596.579 2.153.434.386.984.586 1.545.586.353 0 .711-.08 1.047-.242 1.476-.718 3.096-1.076 4.715-1.076v-.974-8.708c-.002 0-.004 0-.005 0" fill="#cdd0d2"/><path d="m6.936.001c-.262 0-.513.062-.739.194-.781.45-1.233 1.864-.232 3.598.629 1.088 1.615 1.791 2.492 1.791.26 0 .511-.062.74-.194.78-.45 1.233-1.866.232-3.598-.645-1.118-1.631-1.791-2.493-1.791" fill="#cdd0d2"/><path d="m1.654 3.999c-.442 0-.859.141-1.187.469-.314.315-.457.713-.467 1.136v.102c.018.741.422 1.546.998 2.121.584.584 1.415 1 2.174 1 .44 0 .856-.14 1.185-.47.883-.881.41-2.418-.53-3.358-.588-.589-1.417-1-2.173-1" fill="#cdd0d2"/><path d="m17.053 23.852c-.62-.461-6.053-4.601-6.053-8.114 0-2.061 1.683-3.738 3.75-3.738 1.063 0 2.054.446 2.75 1.194.696-.748 1.687-1.194 2.75-1.194 2.067 0 3.75 1.677 3.75 3.738 0 3.512-5.433 7.653-6.053 8.114-.265.197-.629.197-.894 0" fill="#f44336"/><path d="m14.75 12c-2.067 0-3.75 1.677-3.75 3.738 0 3.512 5.433 7.653 6.053 8.114.133.099.29.148.447.148v-10.806c-.696-.748-1.687-1.194-2.75-1.194" fill="#d43a2f"/></svg>