<svg id="flat" enable-background="new 0 0 512 512" height="512" viewBox="0 0 512 512" width="512" xmlns="http://www.w3.org/2000/svg"><g fill="#c1b49a"><path d="m40 416h-32c-4.4179688 0-8-3.5820313-8-8s3.5820313-8 8-8h32c4.4179688 0 8 3.5820313 8 8s-3.5820312 8-8 8z"/><path d="m504 416h-32c-4.4179688 0-8-3.5820313-8-8s3.5820313-8 8-8h32c4.4179688 0 8 3.5820313 8 8s-3.5820312 8-8 8z"/><path d="m40 352h-32c-4.4179688 0-8-3.5820313-8-8s3.5820313-8 8-8h32c4.4179688 0 8 3.5820313 8 8s-3.5820312 8-8 8z"/><path d="m504 352h-32c-4.4179688 0-8-3.5820313-8-8s3.5820313-8 8-8h32c4.4179688 0 8 3.5820313 8 8s-3.5820312 8-8 8z"/><path d="m40 288h-32c-4.4179688 0-8-3.5820313-8-8s3.5820313-8 8-8h32c4.4179688 0 8 3.5820313 8 8s-3.5820312 8-8 8z"/><path d="m504 288h-32c-4.4179688 0-8-3.5820313-8-8s3.5820313-8 8-8h32c4.4179688 0 8 3.5820313 8 8s-3.5820312 8-8 8z"/><path d="m40 224h-32c-4.4179688 0-8-3.5820313-8-8s3.5820313-8 8-8h32c4.4179688 0 8 3.5820313 8 8s-3.5820312 8-8 8z"/><path d="m504 224h-32c-4.4179688 0-8-3.5820313-8-8s3.5820313-8 8-8h32c4.4179688 0 8 3.5820313 8 8s-3.5820312 8-8 8z"/></g><path d="m478.4299316 216-17.3498535-17.6646576c-9.040039-9.2039337-21.2001953-14.3353424-34-14.3353424h-344.1601562c-12.7998047 0-24.9599609 5.1314087-34 14.3353424l-17.3498535 17.6646576z" fill="#ded7cb"/><path d="m478.4299316 280-17.3498535-17.6646423c-9.0400391-9.203949-21.2001953-14.3353577-34-14.3353577h-344.1601562c-12.7998047 0-24.9599609 5.1314087-34 14.3353577l-17.3498535 17.6646423z" fill="#ded7cb"/><path d="m478.4299316 344-17.3498535-17.6646423c-9.0400391-9.203949-21.2001953-14.3353577-34-14.3353577h-344.1601562c-12.7998047 0-24.9599609 5.1314087-34 14.3353577l-17.3498535 17.6646423z" fill="#ded7cb"/><path d="m478.4299316 408-17.3498535-17.6646423c-9.0400391-9.203949-21.2001953-14.3353577-34-14.3353577h-344.1601562c-12.7998047 0-24.9599609 5.1314087-34 14.3353577l-17.3498535 17.6646423z" fill="#ded7cb"/><path d="m504 480h-32c-4.4179688 0-8-3.5820313-8-8s3.5820313-8 8-8h32c4.4179688 0 8 3.5820313 8 8s-3.5820312 8-8 8z" fill="#c1b49a"/><path d="m40 480h-32c-4.4179688 0-8-3.5820313-8-8s3.5820313-8 8-8h32c4.4179688 0 8 3.5820313 8 8s-3.5820312 8-8 8z" fill="#c1b49a"/><path d="m480.4299316 216-17.3498535 17.6646576c-9.040039 9.2039337-21.2001953 14.3353424-34 14.3353424h-344.1601562c-12.7998047 0-24.9599609-5.1314087-34-14.3353424l-17.3498535-17.6646576z" fill="#c1b49a"/><path d="m480.4299316 280-17.3498535 17.6646423c-9.0400391 9.203949-21.2001953 14.3353577-34 14.3353577h-344.1601562c-12.7998047 0-24.9599609-5.1314087-34-14.3353577l-17.3498535-17.6646423z" fill="#c1b49a"/><path d="m480.4299316 344-17.3498535 17.6646423c-9.0400391 9.203949-21.2001953 14.3353577-34 14.3353577h-344.1601562c-12.7998047 0-24.9599609-5.1314087-34-14.3353577l-17.3498535-17.6646423z" fill="#c1b49a"/><path d="m480.4299316 408-17.3498535 17.6646423c-9.0400391 9.203949-21.2001953 14.3353577-34 14.3353577h-344.1601562c-12.7998047 0-24.9599609-5.1314087-34-14.3353577l-17.3498535-17.6646423z" fill="#c1b49a"/><path d="m480.4299316 472-17.3498535 17.6646423c-9.0400391 9.203949-21.2001953 14.3353577-34 14.3353577h-344.1601562c-12.7998047 0-24.9599609-5.1314087-34-14.3353577l-17.3498535-17.6646423z" fill="#c1b49a"/><path d="m478.4299316 472-17.3498535-17.6646423c-9.0400391-9.203949-21.2001953-14.3353577-34-14.3353577h-344.1601562c-12.7998047 0-24.9599609 5.1314087-34 14.3353577l-17.3498535 17.6646423z" fill="#ded7cb"/><path d="m400 64c10.2399902-10.2399902 16-24.1601563 16-38.6401367v-17.3598633h-17.3598633c-14.4802246 0-28.4001465 5.7600098-38.6401367 16h-208c-10.2399902-10.2399902-24.1599121-16-38.6401367-16h-17.3598633v17.3598633c0 14.4799805 5.7600098 28.4001465 16 38.6401367v352c-10.2399902 10.2402344-16 24.1601563-16 38.6401367v17.3598633h17.3598633c14.4802246 0 28.4001465-5.7597656 38.6401367-16h208c10.2399902 10.2402344 24.1599121 16 38.6401367 16h17.3598633v-17.3598633c0-14.4799805-5.7600098-28.3999023-16-38.6401367z" fill="#fbe2bc"/><path d="m416 25.3598633v-17.3598633h-17.3598633c-14.4802246 0-28.4001465 5.7600098-38.6401367 16h-48v312 .0000305c0 22.0913696-17.9085999 39.9999695-39.9999695 39.9999695h-.0000305-160v40c-10.2399902 10.2402344-16 24.1601563-16 38.6401367v17.3598633h17.3598633c14.4802246 0 28.4001465-5.7597656 38.6401367-16h208c10.2399902 10.2402344 24.1599121 16 38.6401367 16h17.3598633v-17.3598633c0-14.4799805-5.7600098-28.3999023-16-38.6401367v-352c10.2399902-10.2399902 16-24.1601562 16-38.6401367z" fill="#f9ce95"/><path d="m360 456h-19.3200684l-2.3398438-2.3398438c-3.1201172-3.1303711-3.1201172-8.1904297 0-11.3203125 3.1298828-3.1201172 8.1899414-3.1201172 11.3198242 0l8 8c1.5600587 1.5600586 2.340088 3.6103516 2.340088 5.6601563z" fill="#c99d66"/><path d="m400 396.6801758v19.3198242c-2.0500488 0-4.0900879-.7802734-5.6599121-2.3398438l-8-8c-3.1201172-3.1303711-3.1201172-8.1904297 0-11.3203125 3.1298828-3.1201172 8.1899414-3.1201172 11.3198242 0z" fill="#c99d66"/><path d="m184 24h144v48h-144z" fill="#387f29"/><path d="m184 408h144v48h-144z" fill="#387f29"/><path d="m328 112h-144c-4.4179688 0-8-3.5820313-8-8s3.5820313-8 8-8h144c4.4179688 0 8 3.5820313 8 8s-3.5820312 8-8 8z" fill="#387f29"/><path d="m328 144h-144c-4.4179688 0-8-3.5820313-8-8s3.5820313-8 8-8h144c4.4179688 0 8 3.5820313 8 8s-3.5820312 8-8 8z" fill="#387f29"/><path d="m144 352h20.3354492c5.5690918 9.753418 16.0522461 16 27.6645508 16s22.095459-6.246582 27.6645508-16h72.6708984c5.5690918 9.753418 16.0522461 16 27.6645508 16 17.6445313 0 32-14.3554688 32-32 0-7.9018555-2.8820801-15.4155273-8-21.1484375v-23.5371094l16 16v12.6855469c0 4.4179688 3.5820313 8 8 8s8-3.5820313 8-8v-15.9951172c0-.0029297 0-.0068359 0-.0097656v-63.9899902c0-.003418 0-.0068359 0-.0102539v-15.9948731c0-4.4179688-3.5820313-8-8-8s-8 3.5820313-8 8v12.6855469l-16 16v-28.6855469c0-4.4179688-3.5820313-8-8-8h-24.5178223c-3.8676758-30.8583984-29.7766113-54.9418945-61.4265137-55.9477539-.6809081-.034668-1.3662109-.0522461-2.055664-.0522461s-1.3747559.0175781-2.0556641.0522461c-31.6499023 1.0058594-57.5588379 25.0893555-61.4265136 55.9477539h-16.5178223c-2.1220703 0-4.15625.8427734-5.6572266 2.3427734l-24 24c-1.5 1.5009766-2.3427734 3.5351563-2.3427734 5.6572266v96c0 4.4179688 3.5820313 8 8 8zm216-92.6860352v25.3720703l-12.6865234-12.6860351zm-48-27.3139648h16v39.9951172.0097656 33.0195313c-2.590332-.6704102-5.2744141-1.0244141-8-1.0244141h-8zm-2.7451172 92.1923828c.0380859-.0332031.0771484-.0673828.1152344-.1025391 2.9121094-2.6376953 6.6875-4.0898437 10.6298828-4.0898437s7.7177734 1.4521484 10.6298828 4.0898438c.0380859.0351563.0771484.0693359.1152344.1025391 3.3398437 2.9091796 5.2548828 7.2128905 5.2548828 11.8076171 0 8.8222656-7.1777344 16-16 16-6.8007813 0-12.8251953-4.2548828-14.9912109-10.5888672-.0341797-.0996094-.0703125-.1982422-.1083984-.296875-.5976563-1.5458984-.9003907-3.2666015-.9003907-5.1142578 0-4.5947266 1.9150391-8.8984375 5.2548828-11.8076172zm-21.2548828 11.8076172h-64c0-5.8266602-1.572998-11.2890625-4.3051758-16h72.5734863c-2.7644042 4.7807617-4.2683105 10.2900391-4.2683105 16zm-40-160c13.2333984 0 24 10.7666016 24 24s-10.7666016 24-24 24-24-10.7666016-24-24 10.7666016-24 24-24zm-39.902832 21.3549805c-.0576172.8752441-.097168 1.7553711-.097168 2.6450195 0 22.0556641 17.9443359 40 40 40s40-17.9443359 40-40c0-.8896484-.0395508-1.7697754-.097168-2.6450195 5.1103516 7.6281738 8.097168 16.793457 8.097168 26.6450195 0 26.4677734-21.5322266 48-48 48s-48-21.5322266-48-48c0-9.8515625 2.9868164-19.0168457 8.097168-26.6450195zm-8.097168 68.9096679c11.7365723 13.3134766 28.8984375 21.7353516 48 21.7353516s36.2634277-8.421875 48-21.7353516v37.7353516h-96zm-8 53.7353516c8.8222656 0 16 7.1777344 16 16 0 1.8476563-.3027344 3.5683594-.9003906 5.1142578-.0380859.0986328-.0742188.1972656-.1083984.296875-2.1660157 6.3339844-8.1904297 10.5888672-14.991211 10.5888672s-12.8251953-4.2548828-14.9912109-10.5888672c-.0341797-.0996094-.0703125-.1982422-.1083984-.296875-.5976563-1.5458984-.9003907-3.2666015-.9003907-5.1142578 0-8.8222656 7.1777344-16 16-16zm-40-8h8c4.4179688 0 8-3.5820313 8-8s-3.5820313-8-8-8h-8v-8h8c4.4179688 0 8-3.5820313 8-8s-3.5820313-8-8-8h-8v-8h8c4.4179688 0 8-3.5820313 8-8s-3.5820313-8-8-8h-4.6865234l16-16h12.6865234v73.0126953c-13.7861328 3.5615235-24 16.1040039-24 30.9873047h-8z" fill="#387f29"/><path d="m173.6599121 37.6599121c-1.5698242 1.5600586-3.6098633 2.3400879-5.6599121 2.3400879s-4.0900879-.7800293-5.6599121-2.3400879l-8-8c-1.5600586-1.5598144-2.3400879-3.6098633-2.3400879-5.6599121h19.3200684l2.3398438 2.3398438c3.1201171 3.1301269 3.1201171 8.1901855-.0000001 11.3200683z" fill="#c99d66"/><path d="m125.6599121 85.6599121c-1.5698242 1.5600586-3.6098633 2.3400879-5.6599121 2.3400879s-4.0900879-.7800293-5.6599121-2.3400879l-2.3400879-2.3398437v-19.3200684c2.0500488 0 4.1000977.7800293 5.6599121 2.3398438l8 8c3.1201172 3.1301269 3.1201172 8.1901855 0 11.3200683z" fill="#c99d66"/><path d="m360 24c0 2.0500488-.7800293 4.1000977-2.3400879 5.6599121l-8 8c-1.5698242 1.5600586-3.6098633 2.3400879-5.6599121 2.3400879s-4.0900879-.7800293-5.6599121-2.3400879c-3.1201172-3.1298828-3.1201172-8.1899414 0-11.3200684l2.3398437-2.3398437z" fill="#c99d66"/><path d="m400 64v19.3200684l-2.3400879 2.3398438c-1.5698242 1.5600585-3.6098633 2.3400878-5.6599121 2.3400878s-4.0900879-.7800293-5.6599121-2.3400879c-3.1201172-3.1298828-3.1201172-8.1899414 0-11.3200684l8-8c1.5598144-1.5598144 3.6098633-2.3398437 5.6599121-2.3398437z" fill="#c99d66"/><path d="m173.6599121 453.6601563-2.3398437 2.3398437h-19.3200684c0-2.0498047.7800293-4.1000977 2.3400879-5.6601563l8-8c3.1298828-3.1201172 8.1899414-3.1201172 11.3198242 0 3.1201172 3.1298829 3.1201172 8.1899415 0 11.3203126z" fill="#c99d66"/><path d="m125.6599121 405.6601563-8 8c-1.5698242 1.5595703-3.6098633 2.3398437-5.6599121 2.3398437v-19.3198242l2.3400879-2.340332c3.1298828-3.1201172 8.1899414-3.1201172 11.3198242 0 3.1201172 3.1298828 3.1201172 8.1899414 0 11.3203125z" fill="#c99d66"/></svg>