<svg id="Capa_1" enable-background="new 0 0 512 512" height="512" viewBox="0 0 512 512" width="512" xmlns="http://www.w3.org/2000/svg"><g><g><path d="m434.556 481.986h-357.112c-7.84 0-14.358-6.038-14.956-13.856l-31.079-406.24h449.183l-31.079 406.24c-.599 7.817-7.117 13.856-14.957 13.856z" fill="#fbf4f4"/><path d="m256 61.89v420.096h178.556c7.841 0 14.358-6.038 14.956-13.856l31.079-406.24z" fill="#e9e4f0"/></g><g><g><g><path d="m397.2 348.447h-282.4c-63.301 0-114.8-51.498-114.8-114.799v-158.839c0-8.284 6.716-15 15-15s15 6.716 15 15v158.839c0 46.758 38.041 84.799 84.8 84.799h282.4c46.759 0 84.8-38.041 84.8-84.799v-158.839c0-8.284 6.716-15 15-15s15 6.716 15 15v158.839c0 63.301-51.499 114.799-114.8 114.799z" fill="#e9e4f0"/></g><path d="m497 59.809c-8.284 0-15 6.716-15 15v158.839c0 46.758-38.041 84.799-84.8 84.799h-141.2v30h141.2c63.301 0 114.8-51.498 114.8-114.799v-158.839c0-8.285-6.716-15-15-15z" fill="#d3cee2"/></g><g><path d="m325.005 365.619h-138.01c-8.284 0-15-6.716-15-15v-34.343c0-8.284 6.716-15 15-15h138.009c8.284 0 15 6.716 15 15v34.343c.001 8.284-6.715 15-14.999 15z" fill="#3c5c90"/><path d="m325.005 301.276h-69.005v64.343h69.005c8.284 0 15-6.716 15-15v-34.343c0-8.284-6.716-15-15-15z" fill="#283d5e"/></g></g><g><path d="m469.882 30.014h-427.764c-17.604 0-31.875 14.271-31.875 31.875 0 17.604 14.271 31.875 31.875 31.875h14.979c21.654 0 39.181 17.604 39.086 39.258l-.174 39.714c0 17.687 14.338 32.026 32.026 32.026 17.67 0 31.97-14.459 32.026-32.129.056-17.64 14.373-31.922 32.026-31.922 17.687 0 32.026 14.338 32.026 32.026v45.622c0 17.413 13.652 32.132 31.059 32.609 18.059.495 32.855-13.997 32.855-31.945v-46.287c0-17.687 14.338-32.026 32.026-32.026 17.687 0 32.026 14.338 32.026 32.026v46.287c0 17.649 14.308 31.957 31.957 31.957 17.649 0 31.957-14.308 31.957-31.957v-86.153c0-21.567 17.469-39.059 39.036-39.087l14.855-.019c17.604 0 31.875-14.271 31.875-31.875-.001-17.604-14.272-31.875-31.877-31.875z" fill="#89e4e3"/><path d="m469.882 30.014h-213.882v220.956c17.68.036 32.026-14.275 32.026-31.946v-46.287c0-17.687 14.338-32.026 32.026-32.026 17.687 0 32.026 14.338 32.026 32.026v46.287c0 17.649 14.308 31.957 31.957 31.957 17.649 0 31.957-14.307 31.957-31.957v-86.154c0-21.567 17.469-39.059 39.037-39.087l14.855-.019c17.604 0 31.875-14.271 31.875-31.875-.001-17.604-14.272-31.875-31.877-31.875z" fill="#6bb0b0"/></g></g></svg>