<?xml version="1.0" encoding="iso-8859-1"?>
<!-- Generator: Adobe Illustrator 19.0.0, SVG Export Plug-In . SVG Version: 6.00 Build 0)  -->
<svg version="1.1" id="Capa_1" xmlns="http://www.w3.org/2000/svg" xmlns:xlink="http://www.w3.org/1999/xlink" x="0px" y="0px"
	 viewBox="0 0 511.935 511.935" style="enable-background:new 0 0 511.935 511.935;" xml:space="preserve">
<g transform="matrix(-0.7071 0.7071 -0.7071 -0.7071 55.867 23.14)">
	<rect x="-129.082" y="-343.468" style="fill:#F2F2F2;" width="305.067" height="99.2"/>
	<rect x="-129.082" y="-325.335" style="fill:#CDD6E0;" width="305.067" height="62.933"/>
</g>
<path style="fill:#40596B;" d="M107.733,316.8L316.8,107.733L215.467,6.4c-8.533-8.533-21.333-8.533-29.867,0L6.4,185.6
	c-8.533,8.533-8.533,21.333,0,29.867L107.733,316.8z"/>
<path style="fill:#334A5E;" d="M25.6,234.667l208-208l-19.2-19.2c-8.533-8.533-21.333-8.533-29.867,0L6.4,185.6
	c-8.533,8.533-8.533,21.333,0,29.867L25.6,234.667z"/>
<path style="fill:#FFD15C;" d="M173.867,390.4l12.8,12.8c5.333,5.333,13.867,5.333,19.2,0L256,353.067
	c11.733-11.733,35.2-14.933,43.733-1.067C352,425.6,371.2,442.667,448,490.667c17.067,9.6,50.133,28.8,60.8,18.133
	s-8.533-43.733-18.133-60.8C441.6,372.267,425.6,352,352,299.733c-12.8-9.6-9.6-33.067,1.067-43.733l50.133-50.133
	c5.333-5.333,5.333-13.867,0-19.2l-12.8-12.8L173.867,390.4z M424.533,446.933C410.667,433.067,404.267,416,409.6,410.667
	c6.4-6.4,22.4,1.067,36.267,14.933c13.867,13.867,20.267,30.933,14.933,36.267C454.4,468.267,438.4,460.8,424.533,446.933z"/>
<path style="fill:#334A5E;" d="M198.4,27.733L256,86.4c6.4,6.4,7.467,14.933,2.133,22.4c-6.4,7.467-17.067,7.467-23.467,1.067
	l-19.2-19.2c-6.4-6.4-16-6.4-22.4,0l0,0c-6.4,6.4-6.4,16,0,22.4l3.2,3.2c6.4,6.4,7.467,14.933,2.133,22.4
	c-6.4,7.467-17.067,7.467-23.467,1.067l-42.667-42.667L198.4,27.733z"/>
<g>
</g>
<g>
</g>
<g>
</g>
<g>
</g>
<g>
</g>
<g>
</g>
<g>
</g>
<g>
</g>
<g>
</g>
<g>
</g>
<g>
</g>
<g>
</g>
<g>
</g>
<g>
</g>
<g>
</g>
</svg>
