<svg xmlns="http://www.w3.org/2000/svg" xmlns:xlink="http://www.w3.org/1999/xlink" width="1056" height="992" preserveAspectRatio="xMidYMid meet" viewBox="0 0 1056 992" style="-ms-transform: rotate(360deg); -webkit-transform: rotate(360deg); transform: rotate(360deg);"><path d="M189 992q-67 0-119-52q-55-55-55-133.5T70 673L645 63q44-45 101.5-58T863 12t109 69q16 17 29.5 37.5t22 43t13 47.5t4.5 50q-2 106-72 177L534 898q-9 10-22 10.5t-22.5-8.5t-10-22.5T488 854l435-462q53-54 54-134t-51-131q-32-33-71-50t-84-11t-80 41L116 717q-37 37-37 89t37 89q17 17 37 25.5t42 6.5q44-2 82-41l457-486q5-5 9.5-10.5t9.5-13t8-16t4-17t-3-17.5t-12-17q-19-20-37-18q-19 2-43 25L326 682q-6 6-14 8.5t-16.5.5t-14.5-8q-10-9-10-22t9-23l344-367q41-40 83-44q48-4 88 36q38 37 33.5 87T780 444L323 931q-56 56-125 60q-2 0-4.5.5t-4.5.5z" fill="#FFFFFF"/><rect x="0" y="0" width="1056" height="992" fill="rgba(0, 0, 0, 0)" /></svg>