<svg height="512" viewBox="0 0 58 58" width="512" xmlns="http://www.w3.org/2000/svg"><g id="Page-1" fill="none" fill-rule="evenodd"><g id="057---Leaky-Pipe" fill-rule="nonzero"><path id="Shape" d="m56 54v-22c-.0203864-16.5600908-13.4399092-29.97961358-30-30h-15c.0028231-.53059053-.2101411-1.0395388-.59-1.41-.3704612-.3798589-.87940947-.59282307-1.41-.59-1.10320187.0032948-1.9967052.89679813-2 2h-6c-.55228475 0-1 .44771525-1 1v22c0 .5522847.44771525 1 1 1h6c0 1.1045695.8954305 2 2 2s2-.8954305 2-2h15c.1737733-.0002655.3474101.009752.52.03.9978201.0786036 1.9586266.4126474 2.79.97 1.6752533 1.1129872 2.6844062 2.988736 2.69 5v22c-1.1011688.0081672-1.9918328.8988312-2 2 .0032948 1.1032019.8967981 1.9967052 2 2h24c1.1011688-.0081672 1.9918328-.8988312 2-2-.0032948-1.1032019-.8967981-1.9967052-2-2z" fill="#3b97d3"/><path id="Shape" d="m11 2v24c0 1.1045695-.8954305 2-2 2s-2-.8954305-2-2v-24c.0032948-1.10320187.89679813-1.9967052 2-2 .53059053-.00282307 1.0395388.2101411 1.41.59.3798589.3704612.5928231.87940947.59 1.41z" fill="#bdc3c7"/><path id="Shape" d="m7 2v24h-6c-.55228475 0-1-.4477153-1-1v-22c0-.55228475.44771525-1 1-1z" fill="#95a5a5"/><path id="Shape" d="m58 56c-.0081672 1.1011688-.8988312 1.9918328-2 2h-24c-1.1032019-.0032948-1.9967052-.8967981-2-2 .0081672-1.1011688.8988312-1.9918328 2-2h24c1.1032019.0032948 1.9967052.8967981 2 2z" fill="#bdc3c7"/><g fill="#285680"><path id="Shape" d="m46.79 20.62c-.1908221.241492-.4822197.381658-.79.38h-3.5l-2.7 3.6c-.1736394.2330861-.440099.3790914-.73.4-.2894792.0191281-.5733279-.0864054-.78-.29l-.62-.63-.68 4.08c-.0786569.4852851-.4983838.841417-.99.84h-4.81c-.4607169-.8051964-1.1048132-1.4904052-1.88-2h5.84l.86-5.16c.0648438-.3680134.3257356-.6711082.68-.79.358355-.1111785.7488175-.0193049 1.02.24l1.18 1.19 2.31-3.08c.1902778-.2500943.4857579-.3978344.8-.4h2.72l-.69-2.76c-.1087346-.5260968.2176311-1.0441035.7391219-1.1731322.5214908-.1290286 1.051749.1770299 1.2008781.6931322l1 4c.0725768.2991459.0064532.6150697-.18.86z"/><path id="Shape" d="m26.52 26.03c-.1725899-.020248-.3462267-.0302655-.52-.03h-2l-1.8-2.4c-.2269526-.3045133-.2618205-.7113062-.09-1.05l1.74-3.48-1.68-2.52c-.2380487-.2955284-.2883109-.7003343-.1297641-1.0451054.1585468-.3447712.4985809-.570095.8778815-.5817287.3793005-.0116337.7325045.1924276.9118826.5268341l2 3c.1987921.2981494.2217163.6802201.06 1l-1.72 3.44z"/><path id="Shape" d="m42.8 48.6c-.1901779.2502148-.4857214.3979866-.8.4-.2160365-.0020264-.425955-.0719992-.6-.2l-3.31-2.48-1.38 1.39c-.3930079.3899779-1.0269921.3899779-1.42 0l-3.29-3.29v-2.84l4 4.01 1.29-1.3c.3530504-.352644.9120395-.3910478 1.31-.09l4 3c.2121732.1591299.3524422.3960277.3899495.6585786.0375073.262551-.0308196.5292482-.1899495.7414214z"/></g><path id="Shape" d="m27 44c.0016023.7620075-.1234341 1.5189846-.37 2.24-1.099007 3.244641-4.3848104 5.2172052-7.7651781 4.6616642s-5.8620432-3.475952-5.8648219-6.9016642c0-3.38 2.21-7.07 4.15-9.65.01-.01.01-.01.01-.02.8763511-1.1680955 1.8248676-2.2802645 2.84-3.33 0 0 7 7 7 13z" fill="#90bae1"/><path id="Shape" d="m27 44c.0016023.7620075-.1234341 1.5189846-.37 2.24-2.0601723 1.826173-5.0002074 2.2734355-7.5102366 1.1425195-2.5100293-1.130916-4.1227946-3.6294832-4.1197634-6.3825195.1424804-2.3628708.8822332-4.6509436 2.15-6.65.01-.01.01-.01.01-.02.8763511-1.1680955 1.8248676-2.2802645 2.84-3.33 0 0 7 7 7 13z" fill="#b0d3f0"/></g></g></svg>