<svg id="Capa_1" enable-background="new 0 0 511.14 511.14" height="512" viewBox="0 0 511.14 511.14" width="512" xmlns="http://www.w3.org/2000/svg"><g id="XMLID_70_"><path id="XMLID_3286_" d="m112.109 490.43-112.105 20.706 20.706-112.105 289.261-289.261 91.399 91.399z" fill="#e6ecf2"/><path id="XMLID_3119_" d="m.004 511.136h-.003l-.001.004 97.445-17.999 14.664-2.711 11.993-11.993 76.745-76.745 52.75-52.749 147.77-147.771-45.699-45.7z" fill="#d6d6da"/><path id="XMLID_3587_" d="m354.327 248.212-23.995 23.995-40.836-141.962 20.472-20.472 6.363 6.362z" fill="#7c8388"/><path id="XMLID_3552_" d="m419.259 91.882c-10.966-25.741-26.769-49.138-46.553-68.922l-7.239-7.239c-20.96-20.96-54.944-20.96-75.905 0l-46.715 46.715 205.858 205.858 46.715-46.715c20.96-20.96 20.96-54.944 0-75.905l-7.239-7.239c-19.785-19.784-43.182-35.588-68.922-46.553z" fill="#d6d6da"/><path id="XMLID_3637_" d="m135.976 466.563-23.867 23.867-40.965-141.834 23.996-23.995z" fill="#7c8388"/><path id="XMLID_3277_" d="m20.71 399.031 91.399 91.399-112.105 20.706z" fill="#d6d6da"/><path id="XMLID_3636_" d="m212.721 389.818-23.995 23.996-40.837-141.963 23.986-23.985z" fill="#7c8388"/><path id="XMLID_3589_" d="m284.509 318.031-23.986 23.985-40.836-141.962 23.985-23.986z" fill="#7c8388"/><path id="XMLID_3164_" d="m.004 511.136 112.105-20.706-45.699-45.7z" fill="#babac0"/><g fill="#575f64"><path id="XMLID_3114_" d="m309.914 201.226 20.418 70.981 23.995-23.995-20.42-70.979z"/><path id="XMLID_3117_" d="m240.105 271.035 20.418 70.981 23.986-23.985-20.419-70.981z"/><path id="XMLID_3118_" d="m168.308 342.832 20.418 70.982 23.995-23.996-20.423-70.976z"/><path id="XMLID_3191_" d="m91.627 419.513 20.482 70.917 23.867-23.867-20.418-70.981z"/></g><path id="XMLID_3194_" d="m495.42 145.674-7.239-7.239c-19.784-19.784-43.181-35.588-68.922-46.553l-73.483 73.483 102.929 102.929 46.715-46.715c20.96-20.961 20.96-54.945 0-75.905z" fill="#babac0"/></g></svg>