<svg xmlns="http://www.w3.org/2000/svg" xmlns:xlink="http://www.w3.org/1999/xlink" width="24" height="24" preserveAspectRatio="xMidYMid meet" viewBox="0 0 24 24" style="-ms-transform: rotate(360deg); -webkit-transform: rotate(360deg); transform: rotate(360deg);"><path d="M13.5 17v2L12 22l-1.5-3l3-2m1-10.7l-1 .7V6h-3v3l-1 .7v1l5-3.3V6.3m0 4l-1 .7V9l-3 2v2l-1 .7v1l5-3.3v-1.1m0 4l-1 .7v-2l-3 2v2l-1 .7v1l5-3.3v-1.1M8 2S7 2 7 3l3 2h4l3-2s0-1-1-1H8z" fill="#FFFFFF"/><rect x="0" y="0" width="24" height="24" fill="rgba(0, 0, 0, 0)" /></svg>