<?xml version="1.0" encoding="iso-8859-1"?>
<!-- Generator: Adobe Illustrator 19.0.0, SVG Export Plug-In . SVG Version: 6.00 Build 0)  -->
<svg version="1.1" id="Layer_1" xmlns="http://www.w3.org/2000/svg" xmlns:xlink="http://www.w3.org/1999/xlink" x="0px" y="0px"
	 viewBox="0 0 512 512" style="enable-background:new 0 0 512 512;" xml:space="preserve">
<path style="fill:#E5E5E5;" d="M512,411.561c0-6.411-2.497-12.439-7.03-16.972L194.945,84.563c-1.501-1.501-3.535-2.344-5.658-2.344
	s-4.156,0.843-5.658,2.344l-66.381,66.381c-1.5,1.5-2.343,3.535-2.343,5.657c0,2.122,0.843,4.157,2.343,5.657l310.026,310.026
	c4.534,4.534,10.56,7.03,16.972,7.03c6.411,0,12.437-2.496,16.972-7.03l43.75-43.75h-0.001C509.504,424,512,417.973,512,411.561z"/>
<path style="fill:#CCCCCC;" d="M194.945,84.563c-1.501-1.501-3.535-2.344-5.658-2.344s-4.156,0.843-5.658,2.344l-66.381,66.381
	c-1.5,1.5-2.343,3.535-2.343,5.657c0,2.122,0.843,4.157,2.343,5.657l56.448,56.448l77.695-77.695L194.945,84.563z"/>
<polygon style="fill:#999999;" points="57.725,147.105 58.349,164.083 118.088,223.82 135.422,224.8 257.602,102.619 
	258.901,87.277 194.894,23.269 179.906,24.923 "/>
<g>
	<path style="fill:#CCCCCC;" d="M40.308,164.522c-9.251,9.252-9.252,24.691,0,33.944l43.751,43.751
		c9.238,9.238,24.706,9.237,33.945,0l17.416-17.416l-77.695-77.695L40.308,164.522z"/>
	<path style="fill:#CCCCCC;" d="M274.904,51.373l-43.751-43.75c-9.253-9.252-24.691-9.252-33.945,0l-17.301,17.301l77.696,77.695
		l17.302-17.302C284.261,75.958,284.261,60.731,274.904,51.373z"/>
</g>
<g>
	<path style="fill:#B2B2B2;" d="M303.949,145.644c-2.113-6.053-6.458-10.919-12.232-13.705c-9.183-4.43-20.196-2.566-27.404,4.644
		c-1.903,1.904-3.466,4.107-4.643,6.548l-61.856,128.234c-3.886,8.059-2.877,17.855,2.533,24.976
		c6.642,8.743,18.758,11.832,28.806,7.401c5.194-2.289,9.436-6.411,11.899-11.523l61.854-128.234
		C305.693,158.212,306.063,151.697,303.949,145.644z"/>
	<path style="fill:#B2B2B2;" d="M356.759,198.455c-2.113-6.053-6.458-10.921-12.233-13.706c-9.181-4.427-20.194-2.565-27.402,4.643
		c-0.001,0-0.001,0-0.002,0.001c-1.904,1.904-3.467,4.107-4.644,6.548l-61.854,128.234c-4.392,9.105-2.496,20.325,4.681,27.452
		c7.407,7.355,19.031,9.051,28.247,4.155c4.481-2.381,8.107-6.183,10.309-10.752l61.854-128.234
		C358.503,211.021,358.873,204.508,356.759,198.455z"/>
	<path style="fill:#B2B2B2;" d="M409.569,251.264c-2.113-6.053-6.458-10.921-12.233-13.706c-9.182-4.428-20.195-2.565-27.403,4.644
		c-1.905,1.905-3.468,4.109-4.644,6.548l-61.854,128.234c-4.392,9.105-2.495,20.325,4.681,27.452
		c7.407,7.356,19.031,9.051,28.246,4.155c4.482-2.381,8.107-6.183,10.309-10.752l61.854-128.234
		C411.312,263.831,411.682,257.317,409.569,251.264z"/>
	<path style="fill:#B2B2B2;" d="M462.378,304.074c-2.113-6.053-6.458-10.919-12.233-13.705c-9.185-4.431-20.197-2.563-27.403,4.644
		c-1.904,1.905-3.467,4.108-4.643,6.548l-61.855,128.234c-2.785,5.774-3.156,12.288-1.042,18.341
		c2.113,6.053,6.458,10.919,12.233,13.705c11.8,5.693,26.373,0.584,32.046-11.19l61.855-128.234
		C464.123,316.64,464.492,310.125,462.378,304.074z"/>
</g>
<path style="fill:#CCCCCC;" d="M229.549,395.306l-46.192-80.008c-4.275-7.402-12.24-12.001-20.787-12.001H70.184
	c-8.548,0-16.513,4.599-20.786,12.001L3.206,395.306c-4.275,7.402-4.275,16.6,0,24.002l46.192,80.008
	c4.275,7.402,12.239,12.001,20.786,12.001h92.386c8.548,0,16.513-4.599,20.787-12.001l46.192-80.008
	C233.824,411.906,233.824,402.708,229.549,395.306z"/>
<path style="fill:#808080;" d="M204.605,403.307L163.956,332.9c-1.429-2.475-4.07-4-6.929-4H75.728c-2.859,0-5.499,1.525-6.929,4
	l-40.648,70.407c-1.429,2.475-1.429,5.526,0,8.001L68.8,481.714c1.429,2.475,4.07,4,6.929,4h81.299c2.859,0,5.499-1.525,6.929-4
	l40.649-70.407C206.034,408.833,206.034,405.782,204.605,403.307z"/>
<path style="fill:#999999;" d="M74.958,471.047l-34.49-59.739c-1.429-2.475-1.429-5.525,0-8.001l34.49-59.739
	c1.429-2.476,4.071-4,6.929-4h68.981c2.858,0,5.499,1.525,6.929,4l34.491,59.739c1.429,2.476,1.429,5.526,0,8.001l-34.491,59.739
	c-1.429,2.475-4.071,4-6.929,4H81.887C79.029,475.047,76.387,473.523,74.958,471.047z"/>
<g>
</g>
<g>
</g>
<g>
</g>
<g>
</g>
<g>
</g>
<g>
</g>
<g>
</g>
<g>
</g>
<g>
</g>
<g>
</g>
<g>
</g>
<g>
</g>
<g>
</g>
<g>
</g>
<g>
</g>
</svg>
