<svg enable-background="new 0 0 24 24" height="512" viewBox="0 0 24 24" width="512" xmlns="http://www.w3.org/2000/svg"><path d="m18.5 24h-13c-.276 0-.5-.224-.5-.5v-12c0-.276.224-.5.5-.5h13c.276 0 .5.224.5.5v12c0 .276-.224.5-.5.5zm-12.5-1h12v-11h-12z"/><path d="m18.5 16h-13c-.276 0-.5-.224-.5-.5s.224-.5.5-.5h13c.276 0 .5.224.5.5s-.224.5-.5.5z"/><path d="m12 16c-.551 0-1-.449-1-1s.449-1 1-1 1 .449 1 1-.449 1-1 1zm0-1.001c0 .001 0 .001 0 0l.5.001z"/><path d="m21.5 24h-19c-.827 0-1.5-.673-1.5-1.5v-15c0-.276.224-.5.5-.5h21c.276 0 .5.224.5.5v15c0 .827-.673 1.5-1.5 1.5zm-19.5-16v14.5c0 .276.224.5.5.5h19c.276 0 .5-.224.5-.5v-14.5z"/><path d="m15.5 5h-7c-.276 0-.5-.224-.5-.5s.224-.5.5-.5h7c.276 0 .5.224.5.5s-.224.5-.5.5z"/><path d="m23.5 8h-23c-.276 0-.5-.224-.5-.5 0-4.136 3.364-7.5 7.5-7.5h9c4.136 0 7.5 3.364 7.5 7.5 0 .276-.224.5-.5.5zm-22.481-1h21.962c-.256-3.352-3.065-6-6.481-6h-9c-3.416 0-6.225 2.648-6.481 6z"/></svg>