<?xml version="1.0" encoding="utf-8"?>
<!-- Generator: Adobe Illustrator 23.0.0, SVG Export Plug-In . SVG Version: 6.00 Build 0)  -->
<svg version="1.1" id="Capa_1" xmlns="http://www.w3.org/2000/svg" xmlns:xlink="http://www.w3.org/1999/xlink" x="0px" y="0px"
	 viewBox="0 0 190 40" style="enable-background:new 0 0 190 40;" xml:space="preserve">
<style type="text/css">
	.st0{fill-rule:evenodd;clip-rule:evenodd;fill:#FF6600;}
	.st1{fill-rule:evenodd;clip-rule:evenodd;fill:none;}
</style>
<path class="st0" d="M186.8,12.2v1.2h-0.6v-2.9h1.1c0.8,0,1.2,0.2,1.2,0.9c0,0.5-0.3,0.7-0.7,0.8l0.7,1.3h-0.7l-0.7-1.2H186.8
	 M186.8,11.6h0.5c0.3,0,0.4-0.1,0.4-0.4c0-0.3-0.3-0.3-0.5-0.3h-0.4L186.8,11.6L186.8,11.6z M190,11.9c0,1.7-1.3,2.7-2.7,2.7
	s-2.7-1-2.7-2.7s1.3-2.7,2.7-2.7S190,10.2,190,11.9 M189.3,11.9c0-1.3-0.9-2.2-2-2.2c-1.1,0-2,0.9-2,2.2s0.9,2.2,2,2.2
	C188.4,14.1,189.3,13.2,189.3,11.9z M18.3,18h6.5c1.2-5.3,7.3-5,7.3-5c6.2,0,10.8,3.8,10.8,3.8c0.2,0.1,0.2-0.2,0.2-0.2
	c-3-4.4-11.5-7.6-21.5-7.6C11.5,9.1,3,12.2,0,16.6c0,0,0,0.2,0.2,0.1c0,0,4.6-3.7,10.8-3.8C11,13,17,12.7,18.3,18 M18.3,22
	C17,27.3,11,27,11,27c-6.2,0-10.8-3.8-10.8-3.8C0,23.1,0,23.4,0,23.4c3,4.4,11.5,7.6,21.5,7.6c10,0,18.5-3.2,21.5-7.6
	c0,0,0-0.3-0.2-0.2c0,0-4.6,3.7-10.8,3.8c0,0-6.1,0.3-7.3-5L18.3,22 M48.1,9.1v4.6h7.3v17.3h5.7V13.6h7.3V9.1H48.1 M104.2,30.9h2.4
	c4.1-0.3,6-2,6-2c2.3-1.6,2.3-5.1,2.3-5.1V9.1h-5.6v13.9c0,0,0.5,3.9-4.3,3.9h-0.4c-4.8,0-4.3-3.9-4.3-3.9V9.1h-5.6v14.9
	c0,0,0,3.4,2.3,5.1c0,0,1.9,1.6,6,2H104.2 M82.4,13.6l0.4,0c3.1,0,3,2.1,3,2.1v0.6c0,2.6-3.1,2.6-3.1,2.6h-5.1l9.9,12h6.5l-6.6-7.8
	c5-1.7,4.5-7,4.5-7c0-7-7-7.1-7-7.1H71.1v21.9h5.7V13.6H82.4 M131.9,23.5h-7.8v7.4h-5.7V9.1h13.7c0,0,7,0,7,7.1c0,0,0.5,5.3-4.5,7
	C134.6,23.1,133.6,23.5,131.9,23.5 M124.1,19h5.9c0,0,3.1,0,3.1-2.6v-0.6c0,0,0.1-2.1-3-2.1l-0.4,0h-5.6V19L124.1,19z M174.2,13.6
	l0.4,0c3.1,0,3,2.1,3,2.1v0.6c0,2.6-3.1,2.6-3.1,2.6h-5.1l9.9,12h6.5l-6.6-7.8c5-1.7,4.5-7,4.5-7c0-7-7.1-7.1-7.1-7.1h-13.7v21.9
	h5.7V13.6H174.2 M141.4,9.1c0,7.3,0,14.6,0,21.9h18.5v-4.6H147v-4.1h9.9v-4.5H147v-4.1h12.8V9.1H141.4"/>
<rect x="-165.3" y="-20" class="st1" width="520.6" height="80"/>
</svg>
